<svg xmlns="http://www.w3.org/2000/svg" width="180" height="48" viewBox="0 0 180 48" role="img" aria-labelledby="title desc">
  <title id="title">BoxBuilder</title>
  <desc id="desc">Stylized BB monogram for BoxBuilder</desc>
  <rect x="1" y="1" width="178" height="46" rx="10" fill="#0e1113" stroke="#2d5b7d" stroke-width="2"/>
  <text x="50" y="30" font-family="'Segoe UI', system-ui, Arial" font-size="22" fill="#ffb543" letter-spacing="1">BoxBuilder</text>
  <g fill="#ffb543">
    <path d="M18 34V14h9.2c3.2 0 5.6.7 7.3 2.2 1.7 1.4 2.6 3.4 2.6 5.8 0 1.9-.5 3.5-1.5 4.8-1 .13-2.4 2.2-4.4 2.7l6 4.5h-6.2l-5.4-4.1h-2.4V34h-5.2Zm5.2-8.3h3.6c1.5 0 2.6-.3 3.3-1 .7-.7 1.1-1.6 1.1-2.9 0-1.3-.4-2.2-1.1-2.9-.8-.7-1.9-1-3.4-1h-3.5v7.8Z"/>
  </g>
</svg>
